####
#
# OBJ File Generated by Meshlab
#
####
# Object arrowHead.obj
#
# Vertices: 73
# Faces: 108
#
####
vn -0.527894 -2.989548 2.359550
v -0.000868 -0.004924 0.025000
vn 0.000000 -0.000000 -0.240469
v 0.000000 0.000000 0.000000
vn 0.000001 -3.035867 2.359749
v -0.000000 -0.005000 0.025000
vn 0.527895 -2.989548 2.359550
v 0.000868 -0.004924 0.025000
vn 0.000000 0.000000 3.317720
v 0.000000 -0.003000 0.025000
vn 0.000000 0.000000 3.314747
v 0.000521 -0.002954 0.025000
vn 1.038480 -2.853068 2.360706
v 0.001710 -0.004698 0.025000
vn 0.000000 0.000000 3.316655
v 0.001026 -0.002819 0.025000
vn -1.038480 -2.853067 2.360706
v -0.001710 -0.004698 0.025000
vn 0.000000 0.000000 3.314748
v -0.000521 -0.002954 0.025000
vn 1.517431 -2.629317 2.359472
v 0.002500 -0.004330 0.025000
vn 0.000000 0.000000 3.316665
v 0.001500 -0.002598 0.025000
vn -1.517431 -2.629318 2.359472
v -0.002500 -0.004330 0.025000
vn 0.000000 0.000000 3.316655
v -0.001026 -0.002819 0.025000
vn 1.951515 -2.325609 2.359938
v 0.003214 -0.003830 0.025000
vn 0.000000 0.000000 3.315638
v 0.001928 -0.002298 0.025000
vn -1.951515 -2.325610 2.359938
v -0.003214 -0.003830 0.025000
vn 0.000000 0.000000 3.316665
v -0.001500 -0.002598 0.025000
vn 2.325609 -1.951515 2.359938
v 0.003830 -0.003214 0.025000
vn 0.000000 0.000000 3.315638
v 0.002298 -0.001928 0.025000
vn -2.325610 -1.951515 2.359938
v -0.003830 -0.003214 0.025000
vn 0.000000 0.000000 3.315638
v -0.001928 -0.002298 0.025000
vn 2.629317 -1.517431 2.359472
v 0.004330 -0.002500 0.025000
vn 0.000000 0.000000 3.316665
v 0.002598 -0.001500 0.025000
vn -2.629318 -1.517431 2.359472
v -0.004330 -0.002500 0.025000
vn 0.000000 0.000000 3.315638
v -0.002298 -0.001928 0.025000
vn 2.853068 -1.038480 2.360706
v 0.004698 -0.001710 0.025000
vn 0.000000 0.000000 3.316655
v 0.002819 -0.001026 0.025000
vn -2.853067 -1.038480 2.360706
v -0.004698 -0.001710 0.025000
vn 0.000000 0.000000 3.316665
v -0.002598 -0.001500 0.025000
vn 2.989548 -0.527895 2.359550
v 0.004924 -0.000868 0.025000
vn 0.000000 0.000000 3.314748
v 0.002954 -0.000521 0.025000
vn -2.989548 -0.527894 2.359550
v -0.004924 -0.000868 0.025000
vn 0.000000 0.000000 3.316655
v -0.002819 -0.001026 0.025000
vn 0.000000 0.000000 3.314747
v -0.002954 -0.000521 0.025000
vn 3.035867 0.000000 2.359749
v 0.005000 0.000000 0.025000
vn 0.000000 0.000000 3.317720
v 0.003000 0.000000 0.025000
vn -3.035867 0.000000 2.359749
v -0.005000 0.000000 0.025000
vn 0.000000 0.000000 3.317720
v -0.003000 -0.000000 0.025000
vn 0.000000 0.000000 3.314748
v -0.002954 0.000521 0.025000
vn -2.989548 0.527894 2.359550
v -0.004924 0.000868 0.025000
vn 2.989548 0.527895 2.359550
v 0.004924 0.000868 0.025000
vn 0.000000 0.000000 3.314747
v 0.002954 0.000521 0.025000
vn 2.853067 1.038480 2.360706
v 0.004698 0.001710 0.025000
vn 2.629318 1.517431 2.359472
v 0.004330 0.002500 0.025000
vn 2.325610 1.951515 2.359938
v 0.003830 0.003214 0.025000
vn 1.951515 2.325610 2.359938
v 0.003214 0.003830 0.025000
vn 1.517431 2.629318 2.359472
v 0.002500 0.004330 0.025000
vn 1.038480 2.853067 2.360706
v 0.001710 0.004698 0.025000
vn 0.527894 2.989548 2.359550
v 0.000868 0.004924 0.025000
vn 0.000000 3.035867 2.359749
v 0.000000 0.005000 0.025000
vn -0.527894 2.989548 2.359550
v -0.000868 0.004924 0.025000
vn -1.038480 2.853067 2.360706
v -0.001710 0.004698 0.025000
vn -1.517431 2.629318 2.359472
v -0.002500 0.004330 0.025000
vn -1.951515 2.325610 2.359938
v -0.003214 0.003830 0.025000
vn -2.325610 1.951515 2.359938
v -0.003830 0.003214 0.025000
vn -2.629318 1.517431 2.359472
v -0.004330 0.002500 0.025000
vn -2.853067 1.038480 2.360706
v -0.004698 0.001710 0.025000
vn 0.000000 0.000000 3.316655
v 0.002819 0.001026 0.025000
vn 0.000000 0.000000 3.316655
v -0.002819 0.001026 0.025000
vn 0.000000 0.000000 3.316665
v 0.002598 0.001500 0.025000
vn 0.000000 0.000000 3.316665
v -0.002598 0.001500 0.025000
vn 0.000000 0.000000 3.315638
v 0.002298 0.001928 0.025000
vn 0.000000 0.000000 3.315638
v -0.002298 0.001928 0.025000
vn 0.000000 0.000000 3.315638
v 0.001928 0.002298 0.025000
vn 0.000000 0.000000 3.315638
v -0.001928 0.002298 0.025000
vn 0.000000 0.000000 3.316665
v 0.001500 0.002598 0.025000
vn 0.000000 0.000000 3.316665
v -0.001500 0.002598 0.025000
vn 0.000000 0.000000 3.316655
v 0.001026 0.002819 0.025000
vn 0.000000 0.000000 3.316655
v -0.001026 0.002819 0.025000
vn 0.000000 0.000000 3.314748
v 0.000521 0.002954 0.025000
vn 0.000000 0.000000 3.314747
v -0.000521 0.002954 0.025000
vn 0.000000 0.000000 3.317720
v -0.000000 0.003000 0.025000
# 73 vertices, 0 vertices normals

f 1//1 2//2 3//3
f 2//2 4//4 3//3
f 5//5 1//1 3//3
f 6//6 5//5 3//3
f 4//4 6//6 3//3
f 2//2 7//7 4//4
f 8//8 6//6 4//4
f 7//7 8//8 4//4
f 9//9 2//2 1//1
f 10//10 9//9 1//1
f 5//5 10//10 1//1
f 2//2 11//11 7//7
f 12//12 8//8 7//7
f 11//11 12//12 7//7
f 13//13 2//2 9//9
f 14//14 13//13 9//9
f 10//10 14//14 9//9
f 2//2 15//15 11//11
f 16//16 12//12 11//11
f 15//15 16//16 11//11
f 17//17 2//2 13//13
f 18//18 17//17 13//13
f 14//14 18//18 13//13
f 2//2 19//19 15//15
f 20//20 16//16 15//15
f 19//19 20//20 15//15
f 21//21 2//2 17//17
f 22//22 21//21 17//17
f 18//18 22//22 17//17
f 2//2 23//23 19//19
f 24//24 20//20 19//19
f 23//23 24//24 19//19
f 25//25 2//2 21//21
f 26//26 25//25 21//21
f 22//22 26//26 21//21
f 2//2 27//27 23//23
f 28//28 24//24 23//23
f 27//27 28//28 23//23
f 29//29 2//2 25//25
f 30//30 29//29 25//25
f 26//26 30//30 25//25
f 2//2 31//31 27//27
f 32//32 28//28 27//27
f 31//31 32//32 27//27
f 33//33 2//2 29//29
f 34//34 33//33 29//29
f 30//30 34//34 29//29
f 35//35 33//33 34//34
f 2//2 36//36 31//31
f 37//37 32//32 31//31
f 36//36 37//37 31//31
f 38//38 2//2 33//33
f 35//35 38//38 33//33
f 39//39 38//38 35//35
f 40//40 41//41 39//39
f 41//41 38//38 39//39
f 2//2 42//42 36//36
f 43//43 37//37 36//36
f 42//42 43//43 36//36
f 44//44 42//42 2//2
f 45//45 44//44 2//2
f 46//46 45//45 2//2
f 47//47 46//46 2//2
f 48//48 47//47 2//2
f 49//49 48//48 2//2
f 50//50 49//49 2//2
f 51//51 50//50 2//2
f 52//52 51//51 2//2
f 53//53 52//52 2//2
f 54//54 53//53 2//2
f 55//55 54//54 2//2
f 56//56 55//55 2//2
f 57//57 56//56 2//2
f 58//58 57//57 2//2
f 41//41 58//58 2//2
f 38//38 41//41 2//2
f 42//42 59//59 43//43
f 60//60 58//58 40//40
f 58//58 41//41 40//40
f 44//44 59//59 42//42
f 44//44 61//61 59//59
f 62//62 57//57 60//60
f 57//57 58//58 60//60
f 44//44 45//45 61//61
f 45//45 63//63 61//61
f 64//64 56//56 62//62
f 56//56 57//57 62//62
f 45//45 46//46 63//63
f 46//46 65//65 63//63
f 66//66 55//55 64//64
f 55//55 56//56 64//64
f 46//46 47//47 65//65
f 47//47 67//67 65//65
f 68//68 54//54 66//66
f 54//54 55//55 66//66
f 47//47 48//48 67//67
f 48//48 69//69 67//67
f 70//70 53//53 68//68
f 53//53 54//54 68//68
f 49//49 71//71 69//69
f 48//48 49//49 69//69
f 72//72 52//52 70//70
f 52//52 53//53 70//70
f 49//49 50//50 71//71
f 50//50 73//73 71//71
f 73//73 51//51 72//72
f 51//51 52//52 72//72
f 50//50 51//51 73//73
# 108 faces, 0 coords texture

# End of File
